<?xml version="1.0" encoding="UTF-8" standalone="no"?>
<!-- Created with Inkscape (http://www.inkscape.org/) -->

<svg
   version="1.1"
   id="svg9"
   width="1645"
   height="843"
   viewBox="0 0 1645 843"
   sodipodi:docname="NGTS Logo.svg"
   inkscape:version="1.1.2 (b8e25be833, 2022-02-05)"
   inkscape:export-filename="D:\Work\Old Drive\Pictures\NGTS Logo.png"
   inkscape:export-xdpi="96"
   inkscape:export-ydpi="96"
   xmlns:inkscape="http://www.inkscape.org/namespaces/inkscape"
   xmlns:sodipodi="http://sodipodi.sourceforge.net/DTD/sodipodi-0.dtd"
   xmlns="http://www.w3.org/2000/svg"
   xmlns:svg="http://www.w3.org/2000/svg">
  <defs
     id="defs13" />
  <sodipodi:namedview
     id="namedview11"
     pagecolor="#ffffff"
     bordercolor="#666666"
     borderopacity="1.0"
     inkscape:pageshadow="2"
     inkscape:pageopacity="0.0"
     inkscape:pagecheckerboard="0"
     showgrid="false"
     inkscape:zoom="0.35355339"
     inkscape:cx="1789.0783"
     inkscape:cy="1040.381"
     inkscape:window-width="1920"
     inkscape:window-height="1009"
     inkscape:window-x="-8"
     inkscape:window-y="-8"
     inkscape:window-maximized="1"
     inkscape:current-layer="g15" />
  <g
     inkscape:groupmode="layer"
     inkscape:label="Image"
     id="g15">
    <rect
       style="fill:#0000ff;fill-rule:evenodd"
       id="rect121"
       width="1645"
       height="245.49753"
       x="0"
       y="0" />
    <path
       style="fill:#280b0b;stroke:none;stroke-width:1.94839"
       d="M 0.97419653,122.74876 V 0 H 822.22187 1643.4695 V 122.74876 245.49753 H 822.22187 0.97419653 Z"
       id="path160" />
    <path
       style="fill:#000000;stroke-width:1.94839"
       d="M 0.97419653,122.74876 V 0 H 822.22187 1643.4695 V 122.74876 245.49753 H 822.22187 0.97419653 Z"
       id="path236" />
    <path
       style="fill:#000000;stroke-width:1.94839"
       d="M 2.5047,720.25123 V 597.50247 H 823.75237 1645 V 720.25123 843 H 823.75237 2.5047 Z"
       id="path236-6" />
    <rect
       style="fill:#000000;stroke-width:1.28446"
       id="rect334"
       width="61.653057"
       height="360.27429"
       x="201.1474"
       y="244.89008" />
    <rect
       style="fill:#000000;stroke-width:1.28446"
       id="rect334-6"
       width="61.653057"
       height="360.27429"
       x="426.57715"
       y="245.57893" />
    <rect
       style="fill:#000000;stroke-width:1.3195"
       id="rect334-6-9"
       width="65.062744"
       height="360.27429"
       x="1067.5801"
       y="242.17705" />
    <rect
       style="fill:#000000"
       id="rect482"
       width="274.23633"
       height="51.145317"
       x="963.48035"
       y="244.52333" />
    <path
       style="fill:#000000;stroke:#000000;stroke-width:1px;stroke-linecap:butt;stroke-linejoin:miter;stroke-opacity:1;fill-opacity:1"
       d="m 262.66774,320.87598 156.11499,282.0299 69.16796,-0.24355 -61.5668,-93.72325 -146.71598,-263.28903 -16.86746,-0.75997 z"
       id="path699" />
    <path
       style="fill:#008000;stroke:#008000;stroke-width:1px;stroke-linecap:butt;stroke-linejoin:miter;stroke-opacity:1;fill-opacity:1"
       d="m 793.59509,313.5089 c -22.52201,-9.57371 -46.35576,-19.07321 -85.59954,-11.79911 -31.84522,5.90273 -82.46953,32.13486 -96.19387,98.79139 -7.37912,50.2341 4.17314,100.3208 69.10372,134.43838 41.78554,21.95609 92.56084,23.60243 144.79032,-26.18709 18.96726,-18.08118 29.54083,-41.7693 30.97871,-63.75594 l -65.00191,0.0325 95.22257,-95.28332 96.78737,95.71027 -66.50187,0.0448 c -15.94432,82.1632 -44.15008,97.54699 -71.00218,122.08579 -22.47167,20.53574 -42.48708,25.48795 -62.73162,33.01505 l -99.00897,-0.68888 C 616.01116,576.89588 585.4876,541.49759 567.62655,501.36642 544.14951,448.61694 536.43548,386.73106 580.6391,319.75372 613.51912,269.9339 651.50641,256.67794 684.03755,245.90414 l 97.49673,-0.79878 44.65007,18.1348 z"
       id="path1393"
       sodipodi:nodetypes="cscsscccccsccsscccc" />
    <path
       style="fill:#000000;stroke:#000000;stroke-width:1px;stroke-linecap:butt;stroke-linejoin:miter;stroke-opacity:1;fill-opacity:1"
       d="m 1339.9011,245.35715 c -30.4905,11.4143 -46.5361,29.42601 -57.045,49.9665 -17.0496,53.06283 -5.1924,74.12712 6.7894,95.05343 16.1183,21.10234 40.1347,38.17448 73.5119,50.46989 22.0813,12.66447 42.9438,11.01725 66.3511,39.2505 5.9096,5.1589 16.1259,31.10755 -2.3881,53.76148 -13.4396,12.45538 -28.2336,24.03547 -66.6571,20.34577 -26.971,-2.51607 -52.5257,-10.52328 -76.9126,-23.05874 l -15.8081,55.63926 30.1611,13.18838 131.8796,-0.0198 c 13.6749,-5.12096 47.2543,-17.21764 66.3328,-59.94242 21.2733,-45.37438 -5.3114,-105.32216 -42.1952,-128.40902 -21.282,-13.99278 -72.5861,-30.54967 -82.5586,-37.32488 -13.9593,-9.13189 -31.4978,-12.23949 -31.1238,-45.49654 0.3128,-4.86637 0.1292,-25.84354 36.4334,-38.79979 13.2931,-1.28169 20.9359,-4.15372 53.7523,0.0596 13.1963,3.14873 26.7555,7.00867 42.6276,15.40129 l 17.0591,-53.89157 c 0,0 -16.0528,-6.3687 -17.3027,-6.35846 -1.25,0.0102 -132.9071,0.16507 -132.9071,0.16507 z"
       id="path2359"
       sodipodi:nodetypes="cccccccccccccccccccscc" />
    <text
       xml:space="preserve"
       style="font-style:normal;font-variant:normal;font-weight:bold;font-stretch:normal;font-size:109.11px;line-height:1.25;font-family:sans-serif;-inkscape-font-specification:'sans-serif, Bold';font-variant-ligatures:normal;font-variant-caps:normal;font-variant-numeric:normal;font-variant-east-asian:normal;fill:#ffffff;fill-opacity:1;stroke:none;stroke-width:2.72773"
       x="202.91583"
       y="716.78754"
       id="text5794"
       transform="scale(1.0007617,0.99923884)"><tspan
         sodipodi:role="line"
         id="tspan5792"
         x="202.91583"
         y="716.78754"
         style="stroke-width:2.72773">R  E  C  Y  C  L  I  N  G   </tspan></text>
  </g>
</svg>
